Coordinates
version=1
nRows=25
nColumns=23
inDegrees=yes

Units are S.I. units (second, meters, Newtons, ...)
If the header above contains a line with 'inDegrees', this indicates whether rotational values are in degrees (yes) or radians (no).

endheader
time	pelvis_tilt	pelvis_list	pelvis_rotation	pelvis_tx	pelvis_ty	pelvis_tz	hip_flexion_r	hip_adduction_r	hip_rotation_r	knee_angle_r	knee_angle_r_beta	ankle_angle_r	subtalar_angle_r	mtp_angle_r	hip_flexion_l	hip_adduction_l	hip_rotation_l	knee_angle_l	knee_angle_l_beta	ankle_angle_l	subtalar_angle_l	mtp_angle_l
     14.38000000	      3.43588335	     11.62914149	      6.41541907	      2.26617514	      0.98279614	      0.99216249	      8.24982542	    -16.24674621	     -3.41055765	     78.02065657	      1.36171734	      3.61295225	    -33.69342084	      0.00000000	     14.42734193	     18.24867808	      8.54743600	     45.79708608	      0.79930994	     19.79200561	    -17.75081893	      0.00000000
     14.38666667	      3.45473809	     11.41862049	      6.61478620	      2.26420411	      0.98304170	      0.99275447	      9.79281025	    -15.92051017	     -3.00057797	     78.15923763	      1.36413604	      4.30911813	    -33.68461161	      0.00000000	     13.13784329	     17.92924380	      9.05444390	     45.45383140	      0.79331902	     20.48513680	    -17.61777647	      0.00000000
     14.39333333	      3.40149853	     11.08951263	      6.49783007	      2.26238308	      0.98355959	      0.99365221	     11.50753062	    -15.38463501	     -2.27413969	     78.12276091	      1.36349940	      5.01395011	    -33.44503997	      0.00000000	     11.92766478	     17.37067731	      9.17457101	     44.94673439	      0.78446850	     21.12888408	    -17.38618261	      0.00000000
     14.40000000	      3.29850190	     10.74644138	      5.91146646	      2.26078185	      0.98430537	      0.99515478	     13.39835217	    -14.69846129	     -1.10717170	     77.92957815	      1.36012772	      5.64206016	    -33.27844208	      0.00000000	     10.79162369	     16.63364212	      8.66786611	     44.27073711	      0.77267012	     21.70304990	    -16.77875512	      0.00000000
     14.40666667	      3.20163845	     10.34793746	      5.73353143	      2.25940661	      0.98555104	      0.99589057	     14.98768066	    -14.08996431	     -0.51640813	     77.42366421	      1.35129786	      6.27307948	    -32.93096235	      0.00000000	      9.49120719	     16.00500136	      8.74962371	     43.49039983	      0.75905067	     22.11011887	    -16.43234519	      0.00000000
     14.41333333	      3.20095200	      9.95349106	      5.40279096	      2.25829596	      0.98722351	      0.99672719	     16.40530072	    -13.44310438	      0.12528365	     76.69101796	      1.33851077	      6.82947208	    -32.61030651	      0.00000000	      8.03484257	     15.33112498	      8.64161373	     42.55692925	      0.74275854	     22.38552045	    -15.96903090	      0.00000000
     14.42000000	      3.18533890	      9.48301914	      5.15302268	      2.25749025	      0.98933953	      0.99729156	     17.68429474	    -12.76118045	      0.56501483	     75.70071782	      1.32122677	      7.34730900	    -32.22142568	      0.00000000	      6.49951298	     14.61726520	      8.68172601	     41.47565543	      0.72388675	     22.51587704	    -15.53006063	      0.00000000
     14.42666667	      3.15832436	      8.93033611	      4.93840166	      2.25689163	      0.99175626	      0.99771937	     18.84136072	    -12.02632218	      0.84003797	     74.47491484	      1.29983247	      7.85102223	    -31.79180607	      0.00000000	      4.96022028	     13.83967784	      8.77559299	     40.35299807	      0.70429268	     22.44550287	    -15.19357255	      0.00000000
     14.43333333	      3.31813686	      8.33862603	      4.69483433	      2.25660009	      0.99474317	      0.99812395	     19.65144211	    -11.26934770	      0.96858083	     72.98502317	      1.27382896	      8.20429607	    -31.42795222	      0.00000000	      3.15637849	     12.98822667	      8.82781587	     39.09264587	      0.68229538	     22.22332597	    -14.73394470	      0.00000000
     14.44000000	      2.73498548	      7.93236155	      4.78196949	      2.25650432	      0.99704238	      0.99809588	     21.16674817	    -10.91271575	      0.86510667	     71.44181209	      1.24689484	      8.56302322	    -31.00370044	      0.00000000	      2.16968934	     12.43316855	      9.07813055	     37.91363092	      0.66171769	     21.73927109	    -14.28459438	      0.00000000
     14.44666667	      3.47014019	      6.91911167	      4.41476524	      2.25663034	      1.00140078	      0.99854892	     21.05474026	     -9.68243650	      0.65630875	     69.36752701	      1.21069174	      8.80743840	    -30.56075666	      0.00000000	     -0.28546096	     11.06846327	      9.02321719	     36.47983278	      0.63669319	     21.08244237	    -13.92801351	      0.00000000
     14.45333333	      3.33761158	      6.11493375	      4.29266910	      2.25693713	      1.00481983	      0.99871076	     21.83077047	     -8.83669951	      0.34431108	     67.27913401	      1.17424241	      8.93742486	    -30.18316461	      0.00000000	     -1.74509531	     10.02400363	      9.03328238	     35.17784899	      0.61396929	     20.15407031	    -13.61327761	      0.00000000
     14.46000000	      2.62127614	      5.62818823	      4.26065947	      2.25734943	      1.00756585	      0.99886441	     23.23744918	     -8.46080508	     -0.02101148	     65.22512875	      1.13839325	      9.09004324	    -29.63591913	      0.00000000	     -2.53154354	      9.35857483	      9.00344171	     33.94527679	      0.59245685	     18.91365132	    -13.09638079	      0.00000000
     14.46666667	      3.37086609	      4.32062175	      3.95860225	      2.25805217	      1.01257506	      0.99915251	     22.71265918	     -7.01097308	     -0.66137483	     62.47516930	      1.09039741	      9.06269437	    -29.18067450	      0.00000000	     -4.92278431	      7.63677424	      8.53716543	     32.51888271	      0.56756157	     17.66232415	    -12.62510029	      0.00000000
     14.47333333	      3.28710337	      3.41037795	      3.73251118	      2.25880516	      1.01647686	      0.99947705	     23.13769608	     -6.11249102	     -1.27690717	     59.85412030	      1.04465147	      9.09139309	    -28.43455872	      0.00000000	     -6.33916063	      6.42480646	      8.00884302	     31.23979981	      0.54523736	     16.08312226	    -12.05391886	      0.00000000
     14.48000000	      3.37631720	      2.42513364	      3.45171954	      2.25961668	      1.02066974	      0.99983218	     23.26639239	     -5.12601469	     -1.99146169	     57.04045310	      0.99554371	      9.06694617	    -27.48663736	      0.00000000	     -7.90703536	      5.11497973	      7.22803262	     29.96705708	      0.52302381	     14.33833600	    -11.35876174	      0.00000000
     14.48666667	      3.06681197	      1.47620061	      3.08882401	      2.26054463	      1.02441299	      1.00036058	     23.77868460	     -4.13810574	     -2.62488808	     54.14825708	      0.94506537	      9.02977207	    -26.36733415	      0.00000000	     -8.97928029	      3.91699924	      6.32738696	     28.80872156	      0.50280704	     12.40781179	    -10.82238726	      0.00000000
     14.49333333	      3.03429206	      0.52611200	      2.64705235	      2.26138395	      1.02849416	      1.00112217	     23.89468199	     -3.07679737	     -3.24781819	     51.10952823	      0.89202955	      8.98220780	    -24.97121443	      0.00000000	    -10.31322537	      2.68906959	      5.14770786	     27.67896897	      0.48308914	     10.29277425	    -10.04458970	      0.00000000
     14.50000000	      2.86392122	     -0.39850299	      2.15713845	      2.26227018	      1.03236953	      1.00196321	     24.07850507	     -2.00862485	     -3.85706734	     47.98487006	      0.83749397	      8.92556465	    -23.26632255	      0.00000000	    -11.44863557	      1.54364383	      3.88764562	     26.63962565	      0.46494918	      8.06229196	     -9.39087980	      0.00000000
     14.50666667	      2.13574274	     -1.12939234	      1.55900797	      2.26307712	      1.03548642	      1.00313119	     24.85752373	     -1.01968112	     -4.15913556	     44.89715921	      0.78360325	      8.84559166	    -21.35854134	      0.00000000	    -11.87768067	      0.70337085	      2.68622779	     25.80471335	      0.45037721	      5.69367401	     -9.13598135	      0.00000000
     14.51333333	      2.26698800	     -2.01225424	      0.91147869	      2.26382514	      1.03952780	      1.00440287	     24.55045115	      0.19701778	     -4.53607881	     41.63208569	      0.72661697	      8.79747112	    -19.04243877	      0.00000000	    -13.25411236	     -0.36528531	      1.04886508	     24.91771278	      0.43489613	      3.33533952	     -8.18745387	      0.00000000
     14.52000000	      1.92973801	     -2.68761648	      0.24365109	      2.26451825	      1.04285278	      1.00588411	     24.72195364	      1.28959817	     -4.63748040	     38.43748007	      0.67086058	      8.71827446	    -16.58228902	      0.00000000	    -14.01675693	     -1.12960179	     -0.36607918	     24.23704502	      0.42301624	      0.88600993	     -7.71396630	      0.00000000
     14.52666667	      1.12941116	     -3.15040353	     -0.46487737	      2.26517766	      1.04545662	      1.00764927	     25.36856655	      2.29441377	     -4.36492842	     35.33422062	      0.61669849	      8.50868936	    -14.21792321	      0.00000000	    -14.15476065	     -1.62490737	     -1.56380907	     23.78204362	      0.41507496	     -1.59150515	     -7.61059456	      0.00000000
     14.53333333	      0.67410932	     -3.57054440	     -1.22679724	      2.26570847	      1.04815516	      1.00955109	     25.58919563	      3.31441827	     -3.94535390	     32.30529838	      0.56383382	      8.40526595	    -11.56390174	      0.00000000	    -14.58669396	     -2.08883567	     -2.97083792	     23.46989045	      0.40962686	     -3.98289009	     -7.30200105	      0.00000000
     14.54000000	      0.21426983	     -3.91385187	     -1.90985683	      2.26641559	      1.05061626	      1.01138668	     25.74492052	      4.26556733	     -3.39357057	     29.37772183	      0.51273797	      8.21332343	     -9.03048918	      0.00000000	    -14.93192665	     -2.46983663	     -4.16922690	     23.28948613	      0.40647821	     -6.36989296	     -7.05975721	      0.00000000
